<svg id="Calque_1" data-name="Calque 1" xmlns="http://www.w3.org/2000/svg" viewBox="0 0 1291.2 131.9"><defs><style>.cls-1{fill:#fff;}</style></defs><g id="LABEL_STUDIO" data-name="LABEL STUDIO"><path class="cls-1" d="M0,129.59V3.22H25.73v104.9h64v21.47Z" transform="translate(0 0)"/><path class="cls-1" d="M222.94,129.59h-28l-11.12-28.94H132.89l-10.52,28.94H95.09L144.71,2.17h27.21ZM175.57,79.18,158,31.9,140.8,79.18Z" transform="translate(0 0)"/><path class="cls-1" d="M236.67,2.17H287.6q15.12,0,22.56,1.26a32.39,32.39,0,0,1,23.07,16,28.86,28.86,0,0,1,3.91,14.9,30.18,30.18,0,0,1-17.9,27.64q11.64,3.39,17.9,11.56a30.69,30.69,0,0,1,6.23,19.16,38,38,0,0,1-4,16.91,34.12,34.12,0,0,1-11,13.12,36.42,36.42,0,0,1-17.25,6q-6.44.69-31,.87H236.67Zm25.7,21.21V52.84h16.86q15,0,18.68-.43,6.61-.78,10.39-4.56a13.51,13.51,0,0,0,3.78-10,14,14,0,0,0-3.26-9.6q-3.26-3.69-9.69-4.48-3.83-.42-22-.43Zm0,50.67v34.07h23.81q13.9,0,17.64-.78a16,16,0,0,0,9.35-5.09q3.6-4,3.6-10.82A16.56,16.56,0,0,0,314,81.7a15.59,15.59,0,0,0-8-5.82q-5.25-1.83-22.81-1.83Z" transform="translate(0 0)"/><path class="cls-1" d="M365.13,129.59V2.17H459.6V23.74H390.85V52h64V73.44h-64v34.68H462v21.47Z" transform="translate(0 0)"/><path class="cls-1" d="M484.55,129.59V3.22h25.72v104.9h64v21.47Z" transform="translate(0 0)"/><path class="cls-1" d="M632.3,88.13l25.07-2.39q2.26,12.6,9.17,18.51t18.65,5.91q12.42,0,18.73-5.26t6.3-12.3a11.63,11.63,0,0,0-2.65-7.69q-2.66-3.16-9.26-5.52-4.51-1.56-20.6-5.56-20.69-5.13-29-12.6Q637,50.72,637,35.59a32.79,32.79,0,0,1,5.52-18.21A34.59,34.59,0,0,1,658.37,4.43Q668.76,0,683.45,0q24,0,36.11,10.52t12.73,28.07l-25.76,1.15q-1.66-9.83-7.09-14.12t-16.29-4.31q-11.22,0-17.56,4.61a9.29,9.29,0,0,0-4.08,7.91,9.77,9.77,0,0,0,3.86,7.71q4.86,4.1,23.64,8.52t27.77,9.17a35.81,35.81,0,0,1,14.08,13q5.08,8.22,5.08,20.3A37.61,37.61,0,0,1,729.86,113a36.45,36.45,0,0,1-17.21,14.21q-11.13,4.65-27.72,4.65-24.16,0-37.12-11.17T632.3,88.13Z" transform="translate(0 0)"/><path class="cls-1" d="M786.23,129.59V23.74H748.42V2.17H849.67V23.74H812V129.59Z" transform="translate(0 0)"/><path class="cls-1" d="M866.1,2.17h25.73v69q0,16.42,1,21.3A20.64,20.64,0,0,0,900.7,105q6.21,4.73,17,4.73,10.95,0,16.52-4.47a17.78,17.78,0,0,0,6.69-11Q942,87.78,942,72.65V2.17h25.72V69.1q0,22.94-2.08,32.42a36,36,0,0,1-7.69,16,38.92,38.92,0,0,1-15,10.38q-9.39,3.87-24.51,3.87-18.26,0-27.68-4.21a39.68,39.68,0,0,1-14.91-11,35,35,0,0,1-7.21-14.12q-2.52-11-2.52-32.33Z" transform="translate(0 0)"/><path class="cls-1" d="M994.73,2.17h47q15.91,0,24.25,2.44a42.6,42.6,0,0,1,19.21,11.73A55.62,55.62,0,0,1,1097.37,37q4.17,12.21,4.17,30.12,0,15.74-3.91,27.11-4.79,13.92-13.65,22.52-6.69,6.51-18.07,10.16-8.52,2.7-22.77,2.7H994.72Zm25.73,21.57v84.39h19.21q10.77,0,15.56-1.22a23.74,23.74,0,0,0,10.38-5.3q4.13-3.73,6.74-12.3T1075,66q0-14.78-2.61-22.69a29.17,29.17,0,0,0-7.3-12.34,24.61,24.61,0,0,0-11.91-6q-5.39-1.21-21.12-1.21Z" transform="translate(0 0)"/><path class="cls-1" d="M1122.58,129.59V2.17h25.73V129.59Z" transform="translate(0 0)"/><path class="cls-1" d="M1167.61,66.66q0-19.47,5.82-32.68a60.14,60.14,0,0,1,11.86-17.47A49.56,49.56,0,0,1,1201.76,5q11.91-5,27.47-5,28.15,0,45.06,17.47t16.91,48.58q0,30.85-16.78,48.28t-44.84,17.37q-28.42,0-45.2-17.34T1167.61,66.66Zm26.5-.87q0,21.64,10,32.81t25.38,11.14q15.39,0,25.25-11.08t9.86-33.24q0-21.91-9.6-32.68T1229.49,22q-15.9,0-25.64,10.91T1194.11,65.79Z" transform="translate(0 0)"/></g></svg>